<svg display="none" xmlns="http://www.w3.org/2000/svg">


  <symbol id="search" viewBox="0 0 15.28 15.281">
    <g>
      <path id="icon" class="cls-1" d="M1547.7,72.076a0.617,0.617,0,0,1,.75.485,2.583,2.583,0,0,0,.78,1.489,3.036,3.036,0,0,0,1.49.777,0.636,0.636,0,0,1,.49.743,0.649,0.649,0,0,1-.72.515,4.21,4.21,0,0,1-2.14-1.13,4.164,4.164,0,0,1-1.13-2.136A0.6,0.6,0,0,1,1547.7,72.076ZM1550.98,66a6.267,6.267,0,0,1,6.28,6.257,6.136,6.136,0,0,1-.57,2.6l2.34,2.036c1.7,1.746.74,3.266,0.29,3.717-0.42.454-1.99,1.414-3.73-.292l-2.06-2.35A6.261,6.261,0,1,1,1550.98,66Zm5.55,13.517a1.352,1.352,0,0,0,1.88.226,1.313,1.313,0,0,0-.23-1.874l-2.16-1.88a6.236,6.236,0,0,1-1.37,1.34Zm-5.55-2.312a4.948,4.948,0,1,0-4.97-4.948A4.963,4.963,0,0,0,1550.98,77.2Z" transform="translate(-1544.72 -66)"/>
    </g>
  </symbol>

  <symbol id="cart" viewBox="0 0 18.94 16.969">
    <g>
      <path class="cls-1"
        d="M1721.53,85.978a2.073,2.073,0,1,1,0-4.147h0a2.056,2.056,0,0,1,1.46.6,2.03,2.03,0,0,1,.61,1.466A2.071,2.071,0,0,1,1721.53,85.978Zm0-2.963h0a0.889,0.889,0,1,0,.34,1.71,0.9,0.9,0,0,0,.55-0.824,0.92,0.92,0,0,0-.26-0.629A0.9,0.9,0,0,0,1721.53,83.015Zm8.39,2.963a2.045,2.045,0,0,1-1.46-.607,2.068,2.068,0,0,1,1.46-3.54h0a1.953,1.953,0,0,1,1.47.6,2.085,2.085,0,0,1-.67,3.383A2.093,2.093,0,0,1,1729.92,85.978Zm0-2.963h0a0.978,0.978,0,0,0-.82.548,0.887,0.887,0,0,0,1.16,1.161,0.891,0.891,0,0,0,.29-1.452A0.9,0.9,0,0,0,1729.92,83.015Zm-11.27.164a0.562,0.562,0,0,1-.25-0.056,0.59,0.59,0,0,1-.29-0.787,3.686,3.686,0,0,1,3.05-2.151l-1.05-5.391a0.591,0.591,0,1,1,1.16-.228l1.09,5.578h9.43l1.8-6.771h-13.3a4.346,4.346,0,0,1-4.28-3.693,0.587,0.587,0,0,1,.49-0.673,0.6,0.6,0,0,1,.68.5,3.159,3.159,0,0,0,3.11,2.682h14.07a0.582,0.582,0,0,1,.47.232,0.594,0.594,0,0,1,.11.513l-2.13,7.956a0.59,0.59,0,0,1-.57.44h-10.36a0.03,0.03,0,0,0-.02,0,2.66,2.66,0,0,0-2.68,1.51A0.586,0.586,0,0,1,1718.65,83.178Z"
        transform="translate(-1716 -69)" />
      </g>
  </symbol>

  <symbol id="heart" viewBox="0 0 485 485">
    <g>
      <path d="M343.611,22.543c-22.613,0-44.227,5.184-64.238,15.409c-13.622,6.959-26.136,16.205-36.873,27.175
		c-10.738-10.97-23.251-20.216-36.873-27.175c-20.012-10.225-41.625-15.409-64.239-15.409C63.427,22.543,0,85.97,0,163.932
		c0,55.219,29.163,113.866,86.678,174.314c48.022,50.471,106.816,92.543,147.681,118.95l8.141,5.261l8.141-5.261
		c40.865-26.406,99.659-68.479,147.682-118.95C455.838,277.798,485,219.151,485,163.932C485,85.97,421.573,22.543,343.611,22.543z
		 M376.589,317.566c-42.918,45.106-95.196,83.452-134.089,109.116c-38.893-25.665-91.171-64.01-134.088-109.116
		C56.381,262.884,30,211.194,30,163.932c0-61.42,49.969-111.389,111.389-111.389c35.361,0,67.844,16.243,89.118,44.563
		l11.993,15.965l11.993-15.965c21.274-28.32,53.757-44.563,89.118-44.563c61.42,0,111.389,49.969,111.389,111.389
		C455,211.194,428.618,262.884,376.589,317.566z"/>
    </g>
  </symbol>

  <symbol id="calendar" viewBox="0 0 26 28">
    <g>
      <path d="M2 26h4.5v-4.5h-4.5v4.5zM7.5 26h5v-4.5h-5v4.5zM2 20.5h4.5v-5h-4.5v5zM7.5 20.5h5v-5h-5v5zM2 14.5h4.5v-4.5h-4.5v4.5zM13.5 26h5v-4.5h-5v4.5zM7.5 14.5h5v-4.5h-5v4.5zM19.5 26h4.5v-4.5h-4.5v4.5zM13.5 20.5h5v-5h-5v5zM8 7v-4.5c0-0.266-0.234-0.5-0.5-0.5h-1c-0.266 0-0.5 0.234-0.5 0.5v4.5c0 0.266 0.234 0.5 0.5 0.5h1c0.266 0 0.5-0.234 0.5-0.5zM19.5 20.5h4.5v-5h-4.5v5zM13.5 14.5h5v-4.5h-5v4.5zM19.5 14.5h4.5v-4.5h-4.5v4.5zM20 7v-4.5c0-0.266-0.234-0.5-0.5-0.5h-1c-0.266 0-0.5 0.234-0.5 0.5v4.5c0 0.266 0.234 0.5 0.5 0.5h1c0.266 0 0.5-0.234 0.5-0.5zM26 6v20c0 1.094-0.906 2-2 2h-22c-1.094 0-2-0.906-2-2v-20c0-1.094 0.906-2 2-2h2v-1.5c0-1.375 1.125-2.5 2.5-2.5h1c1.375 0 2.5 1.125 2.5 2.5v1.5h6v-1.5c0-1.375 1.125-2.5 2.5-2.5h1c1.375 0 2.5 1.125 2.5 2.5v1.5h2c1.094 0 2 0.906 2 2z"></path>
    </g>
  </symbol>

  <symbol id="author" viewBox="0 0 24 28">
    <g>
      <path d="M18.766 12.25c2.203 0.641 5.234 2.812 5.234 9.922 0 3.219-2.391 5.828-5.328 5.828h-13.344c-2.938 0-5.328-2.609-5.328-5.828 0-7.109 3.031-9.281 5.234-9.922-0.781-1.234-1.234-2.688-1.234-4.25 0-4.406 3.594-8 8-8s8 3.594 8 8c0 1.563-0.453 3.016-1.234 4.25zM12 2c-3.313 0-6 2.688-6 6s2.688 6 6 6 6-2.688 6-6-2.688-6-6-6zM18.672 26c1.828 0 3.328-1.703 3.328-3.828 0-4.922-1.656-8-4.75-8.156-1.406 1.234-3.234 1.984-5.25 1.984s-3.844-0.75-5.25-1.984c-3.094 0.156-4.75 3.234-4.75 8.156 0 2.125 1.5 3.828 3.328 3.828h13.344z"></path>
    </g>
  </symbol>

  <symbol id="arrow" viewBox="0 0 22 9">
    <g>
      <path class="cls-1" d="M603.3,2616.47h16.948l-0.1,2.86a0.279,0.279,0,0,0-.084.2,0.3,0.3,0,0,0,.084.21l0.172,0.17a0.276,0.276,0,0,0,.408,0l4.192-4.21a0.283,0.283,0,0,0,.084-0.2,0.307,0.307,0,0,0-.084-0.21l-4.192-4.21a0.3,0.3,0,0,0-.408,0l-0.172.17a0.3,0.3,0,0,0-.084.21,0.3,0.3,0,0,0,.084.2l0.113,2.86H603.292a0.3,0.3,0,0,0-.292.3v1.37A0.288,0.288,0,0,0,603.3,2616.47Z" transform="translate(-603 -2611)"/>
    </g>
  </symbol>

  <symbol id="address" viewBox="0 0 31 44">
    <g>
      <path id="icon" class="cls-1" d="M558.6,655.809l-6.584-2.917-5.674,2.51a1.651,1.651,0,0,1-1.864-.355,1.634,1.634,0,0,1-.313-1.862l4.994-10.516a1.1,1.1,0,1,1,1.972.987l-4.343,9.144,4.32-1.914a2.227,2.227,0,0,1,1.806,0l6.583,2.916h0.011l6.585-2.917a2.223,2.223,0,0,1,1.8,0l4.32,1.914-4.342-9.145a1.093,1.093,0,0,1,.174-1.275,1.107,1.107,0,0,1,1.8.288l4.994,10.518a1.656,1.656,0,0,1-2.176,2.216L567,652.892l-6.594,2.917A2.23,2.23,0,0,1,558.6,655.809Zm-1.947-7.6L547.1,632.283c-0.011-.02-0.023-0.041-0.033-0.062a13.944,13.944,0,1,1,26.39-6.327,13.691,13.691,0,0,1-1.528,6.327l-0.034.062-9.548,15.927A3.326,3.326,0,0,1,556.65,648.21Zm2.683-34.012a11.783,11.783,0,0,0-11.586,11.625,11.521,11.521,0,0,0,1.269,5.366l9.529,15.9a1.114,1.114,0,0,0,1.91,0l9.528-15.9a11.665,11.665,0,0,0-2.231-13.625,11.7,11.7,0,0,0-8.247-3.368Zm-4.884,11.7a5.051,5.051,0,1,1,5.051,5.027A5.044,5.044,0,0,1,554.449,625.894Zm2.206,0a2.845,2.845,0,1,0,2.845-2.83A2.842,2.842,0,0,0,556.655,625.894Z" transform="translate(-544 -612)"/>
    </g>
  </symbol>

  <symbol id="email" viewBox="0 0 37 33.968">
    <g>
      <path id="icon" class="cls-1" d="M942.975,650.918a0.957,0.957,0,0,1-.669-0.272,0.922,0.922,0,0,1-.278-0.659L942,629.786c0-.006,0-0.011,0-0.017a0.927,0.927,0,0,1,.408-0.754l5.322-3.616v-3.838a0.94,0.94,0,0,1,.948-0.932h6.067l5.217-3.546a0.961,0.961,0,0,1,1.079,0l5.185,3.545h6.093a0.94,0.94,0,0,1,.947.932v3.882l5.3,3.621a0.933,0.933,0,0,1,.373.519,0.528,0.528,0,0,1,.034.184L979,649.937a0.941,0.941,0,0,1-.946.933l-35.077.048h0Zm2.773-1.867,29.478-.041-14.712-11.224Zm-1.828-.965,11.443-8.73L943.9,631.563Zm21.72-8.748,11.461,8.744-0.023-16.565Zm-16.014-6.148,7.308,4.968,3-2.288a0.959,0.959,0,0,1,1.148-.008l0.013,0.008,2.977,2.272,7.3-4.993V622.493H949.626v10.7Zm-5.013-3.408,3.118,2.121v-4.241Zm28.654,2.072,3.028-2.071-3.028-2.07v4.141Zm-15.188-11.225h4.828l-2.407-1.645Zm-3.994,12.3a0.933,0.933,0,1,1,0-1.865h12.83a0.933,0.933,0,1,1,0,1.865h-12.83Zm0-4.847a0.932,0.932,0,1,1,0-1.864h12.83a0.932,0.932,0,1,1,0,1.864h-12.83Z" transform="translate(-942 -616.938)"/>
    </g>
  </symbol>

  <symbol id="phone" viewBox="0 0 37 44">
    <g>
      <path id="icon" class="cls-1" d="M1355.44,650.922a5.06,5.06,0,1,1,5.06,5A5.034,5.034,0,0,1,1355.44,650.922Zm1.97,0a3.085,3.085,0,1,0,3.09-3.045A3.074,3.074,0,0,0,1357.41,650.922Zm11.47-11.336a5.06,5.06,0,1,1,5.06,5A5.033,5.033,0,0,1,1368.88,639.586Zm1.98,0a3.085,3.085,0,1,0,3.08-3.046A3.066,3.066,0,0,0,1370.86,639.586Zm-15.42,0a5.06,5.06,0,1,1,5.06,5A5.033,5.033,0,0,1,1355.44,639.586Zm1.97,0a3.085,3.085,0,1,0,3.09-3.046A3.075,3.075,0,0,0,1357.41,639.586Zm-15.41,0a5.06,5.06,0,1,1,5.06,5A5.033,5.033,0,0,1,1342,639.586Zm1.97,0a3.085,3.085,0,1,0,3.09-3.046A3.075,3.075,0,0,0,1343.97,639.586Zm24.91-11.337a5.06,5.06,0,1,1,5.06,5A5.034,5.034,0,0,1,1368.88,628.249Zm1.98,0a3.085,3.085,0,1,0,3.08-3.045A3.064,3.064,0,0,0,1370.86,628.249Zm-15.42,0a5.06,5.06,0,1,1,5.06,5A5.034,5.034,0,0,1,1355.44,628.249Zm1.97,0a3.085,3.085,0,1,0,3.09-3.045A3.073,3.073,0,0,0,1357.41,628.249Zm-15.41,0a5.06,5.06,0,1,1,5.06,5A5.034,5.034,0,0,1,1342,628.249Zm1.97,0a3.085,3.085,0,1,0,3.09-3.045A3.073,3.073,0,0,0,1343.97,628.249Zm24.91-11.336a5.06,5.06,0,1,1,5.06,5A5.033,5.033,0,0,1,1368.88,616.913Zm1.98,0a3.085,3.085,0,1,0,3.08-3.046A3.066,3.066,0,0,0,1370.86,616.913Zm-15.42,0a5.06,5.06,0,1,1,5.06,5A5.033,5.033,0,0,1,1355.44,616.913Zm1.97,0a3.085,3.085,0,1,0,3.09-3.046A3.075,3.075,0,0,0,1357.41,616.913Zm-15.41,0a5.06,5.06,0,1,1,5.06,5A5.033,5.033,0,0,1,1342,616.913Zm1.97,0a3.085,3.085,0,1,0,3.09-3.046A3.075,3.075,0,0,0,1343.97,616.913Z" transform="translate(-1342 -611.906)"/>
    </g>
  </symbol>

</svg>