<svg display="none" xmlns="http://www.w3.org/2000/svg">


  <symbol id="search" viewBox="0 0 15.28 15.281">
    <g>
      <path id="icon" class="cls-1" d="M1547.7,72.076a0.617,0.617,0,0,1,.75.485,2.583,2.583,0,0,0,.78,1.489,3.036,3.036,0,0,0,1.49.777,0.636,0.636,0,0,1,.49.743,0.649,0.649,0,0,1-.72.515,4.21,4.21,0,0,1-2.14-1.13,4.164,4.164,0,0,1-1.13-2.136A0.6,0.6,0,0,1,1547.7,72.076ZM1550.98,66a6.267,6.267,0,0,1,6.28,6.257,6.136,6.136,0,0,1-.57,2.6l2.34,2.036c1.7,1.746.74,3.266,0.29,3.717-0.42.454-1.99,1.414-3.73-.292l-2.06-2.35A6.261,6.261,0,1,1,1550.98,66Zm5.55,13.517a1.352,1.352,0,0,0,1.88.226,1.313,1.313,0,0,0-.23-1.874l-2.16-1.88a6.236,6.236,0,0,1-1.37,1.34Zm-5.55-2.312a4.948,4.948,0,1,0-4.97-4.948A4.963,4.963,0,0,0,1550.98,77.2Z" transform="translate(-1544.72 -66)"/>
    </g>
  </symbol>

  <symbol id="cart" viewBox="0 0 18.94 16.969">
    <g>
      <path class="cls-1"
        d="M1721.53,85.978a2.073,2.073,0,1,1,0-4.147h0a2.056,2.056,0,0,1,1.46.6,2.03,2.03,0,0,1,.61,1.466A2.071,2.071,0,0,1,1721.53,85.978Zm0-2.963h0a0.889,0.889,0,1,0,.34,1.71,0.9,0.9,0,0,0,.55-0.824,0.92,0.92,0,0,0-.26-0.629A0.9,0.9,0,0,0,1721.53,83.015Zm8.39,2.963a2.045,2.045,0,0,1-1.46-.607,2.068,2.068,0,0,1,1.46-3.54h0a1.953,1.953,0,0,1,1.47.6,2.085,2.085,0,0,1-.67,3.383A2.093,2.093,0,0,1,1729.92,85.978Zm0-2.963h0a0.978,0.978,0,0,0-.82.548,0.887,0.887,0,0,0,1.16,1.161,0.891,0.891,0,0,0,.29-1.452A0.9,0.9,0,0,0,1729.92,83.015Zm-11.27.164a0.562,0.562,0,0,1-.25-0.056,0.59,0.59,0,0,1-.29-0.787,3.686,3.686,0,0,1,3.05-2.151l-1.05-5.391a0.591,0.591,0,1,1,1.16-.228l1.09,5.578h9.43l1.8-6.771h-13.3a4.346,4.346,0,0,1-4.28-3.693,0.587,0.587,0,0,1,.49-0.673,0.6,0.6,0,0,1,.68.5,3.159,3.159,0,0,0,3.11,2.682h14.07a0.582,0.582,0,0,1,.47.232,0.594,0.594,0,0,1,.11.513l-2.13,7.956a0.59,0.59,0,0,1-.57.44h-10.36a0.03,0.03,0,0,0-.02,0,2.66,2.66,0,0,0-2.68,1.51A0.586,0.586,0,0,1,1718.65,83.178Z"
        transform="translate(-1716 -69)" />
      </g>
  </symbol>

  <symbol id="heart" viewBox="0 0 485 485">
    <g>
      <path d="M343.611,22.543c-22.613,0-44.227,5.184-64.238,15.409c-13.622,6.959-26.136,16.205-36.873,27.175
		c-10.738-10.97-23.251-20.216-36.873-27.175c-20.012-10.225-41.625-15.409-64.239-15.409C63.427,22.543,0,85.97,0,163.932
		c0,55.219,29.163,113.866,86.678,174.314c48.022,50.471,106.816,92.543,147.681,118.95l8.141,5.261l8.141-5.261
		c40.865-26.406,99.659-68.479,147.682-118.95C455.838,277.798,485,219.151,485,163.932C485,85.97,421.573,22.543,343.611,22.543z
		 M376.589,317.566c-42.918,45.106-95.196,83.452-134.089,109.116c-38.893-25.665-91.171-64.01-134.088-109.116
		C56.381,262.884,30,211.194,30,163.932c0-61.42,49.969-111.389,111.389-111.389c35.361,0,67.844,16.243,89.118,44.563
		l11.993,15.965l11.993-15.965c21.274-28.32,53.757-44.563,89.118-44.563c61.42,0,111.389,49.969,111.389,111.389
		C455,211.194,428.618,262.884,376.589,317.566z"/>
    </g>
  </symbol>

</svg>