<?xml version="1.0" encoding="UTF-8"?>
<svg xmlns="http://www.w3.org/2000/svg" xmlns:xlink="http://www.w3.org/1999/xlink" width="14pt" height="15pt" viewBox="0 0 14 15" version="1.1">
<g id="surface1">
<path style=" stroke:none;fill-rule:nonzero;fill:rgb(0%,0%,0%);fill-opacity:1;" d="M 1.078125 13.929688 L 3.5 13.929688 L 3.5 11.519531 L 1.078125 11.519531 Z M 4.039062 13.929688 L 6.730469 13.929688 L 6.730469 11.519531 L 4.039062 11.519531 Z M 1.078125 10.980469 L 3.5 10.980469 L 3.5 8.304688 L 1.078125 8.304688 Z M 4.039062 10.980469 L 6.730469 10.980469 L 6.730469 8.304688 L 4.039062 8.304688 Z M 1.078125 7.769531 L 3.5 7.769531 L 3.5 5.355469 L 1.078125 5.355469 Z M 7.269531 13.929688 L 9.960938 13.929688 L 9.960938 11.519531 L 7.269531 11.519531 Z M 4.039062 7.769531 L 6.730469 7.769531 L 6.730469 5.355469 L 4.039062 5.355469 Z M 10.5 13.929688 L 12.921875 13.929688 L 12.921875 11.519531 L 10.5 11.519531 Z M 7.269531 10.980469 L 9.960938 10.980469 L 9.960938 8.304688 L 7.269531 8.304688 Z M 4.308594 3.75 L 4.308594 1.339844 C 4.308594 1.195312 4.183594 1.070312 4.039062 1.070312 L 3.5 1.070312 C 3.355469 1.070312 3.230469 1.195312 3.230469 1.339844 L 3.230469 3.75 C 3.230469 3.890625 3.355469 4.019531 3.5 4.019531 L 4.039062 4.019531 C 4.183594 4.019531 4.308594 3.890625 4.308594 3.75 Z M 10.5 10.980469 L 12.921875 10.980469 L 12.921875 8.304688 L 10.5 8.304688 Z M 7.269531 7.769531 L 9.960938 7.769531 L 9.960938 5.355469 L 7.269531 5.355469 Z M 10.5 7.769531 L 12.921875 7.769531 L 12.921875 5.355469 L 10.5 5.355469 Z M 10.769531 3.75 L 10.769531 1.339844 C 10.769531 1.195312 10.644531 1.070312 10.5 1.070312 L 9.960938 1.070312 C 9.816406 1.070312 9.691406 1.195312 9.691406 1.339844 L 9.691406 3.75 C 9.691406 3.890625 9.816406 4.019531 9.960938 4.019531 L 10.5 4.019531 C 10.644531 4.019531 10.769531 3.890625 10.769531 3.75 Z M 14 3.214844 L 14 13.929688 C 14 14.515625 13.511719 15 12.921875 15 L 1.078125 15 C 0.488281 15 0 14.515625 0 13.929688 L 0 3.214844 C 0 2.628906 0.488281 2.144531 1.078125 2.144531 L 2.152344 2.144531 L 2.152344 1.339844 C 2.152344 0.601562 2.757812 0 3.5 0 L 4.039062 0 C 4.777344 0 5.382812 0.601562 5.382812 1.339844 L 5.382812 2.144531 L 8.617188 2.144531 L 8.617188 1.339844 C 8.617188 0.601562 9.222656 0 9.960938 0 L 10.5 0 C 11.242188 0 11.847656 0.601562 11.847656 1.339844 L 11.847656 2.144531 L 12.921875 2.144531 C 13.511719 2.144531 14 2.628906 14 3.214844 Z M 14 3.214844 "/>
</g>
</svg>
