<?xml version="1.0" encoding="UTF-8"?>
<svg xmlns="http://www.w3.org/2000/svg" xmlns:xlink="http://www.w3.org/1999/xlink" width="14pt" height="16pt" viewBox="0 0 14 16" version="1.1">
<g id="surface1">
<path style=" stroke:none;fill-rule:nonzero;fill:rgb(0%,0%,0%);fill-opacity:1;" d="M 10.945312 7 C 12.230469 7.367188 14 8.605469 14 12.667969 C 14 14.507812 12.605469 16 10.890625 16 L 3.109375 16 C 1.394531 16 0 14.507812 0 12.667969 C 0 8.609375 1.769531 7.367188 3.054688 7 C 2.597656 6.292969 2.332031 5.464844 2.332031 4.570312 C 2.332031 2.054688 4.429688 0 7 0 C 9.570312 0 11.667969 2.054688 11.667969 4.570312 C 11.667969 5.464844 11.402344 6.292969 10.945312 7 Z M 7 1.144531 C 5.066406 1.144531 3.5 2.679688 3.5 4.570312 C 3.5 6.464844 5.066406 8 7 8 C 8.933594 8 10.5 6.464844 10.5 4.570312 C 10.5 2.679688 8.933594 1.144531 7 1.144531 Z M 10.890625 14.855469 C 11.957031 14.855469 12.832031 13.882812 12.832031 12.667969 C 12.832031 9.855469 11.867188 8.097656 10.0625 8.007812 C 9.242188 8.714844 8.175781 9.144531 7 9.144531 C 5.824219 9.144531 4.757812 8.714844 3.9375 8.007812 C 2.132812 8.097656 1.167969 9.855469 1.167969 12.667969 C 1.167969 13.882812 2.042969 14.855469 3.109375 14.855469 Z M 10.890625 14.855469 "/>
</g>
</svg>
